<?xml version="1.0" encoding="utf-8"?>
<!-- Generator: Adobe Illustrator 16.0.0, SVG Export Plug-In . SVG Version: 6.00 Build 0)  -->
<!DOCTYPE svg PUBLIC "-//W3C//DTD SVG 1.1//EN" "http://www.w3.org/Graphics/SVG/1.1/DTD/svg11.dtd">
<svg version="1.1" id="Layer_1" xmlns="http://www.w3.org/2000/svg" xmlns:xlink="http://www.w3.org/1999/xlink" x="0px" y="0px"
	 width="567.575px" height="400px" viewBox="0 0 567.575 400" enable-background="new 0 0 567.575 400" xml:space="preserve">
<polygon fill="#8635EF" points="-126.426,566.711 -126.426,639.711 -141.506,630.48 -178.426,607.86 -178.426,536.751 
	-141.486,558.03 "/>
<polygon opacity="0.1" fill="#020202" points="-127.037,567.23 -126.426,567.98 -126.426,579.24 -136.126,583.621 -147.986,588.98 
	-178.426,600.001 -178.426,596.831 -186.126,601.271 -184.936,589.15 -180.747,546.721 -178.426,545.671 -168.876,541.36 
	-140.426,557.751 -129.707,563.931 -125.506,566.351 "/>
<polygon fill="#1F9BCC" points="-126.506,566.351 -128.037,567.23 -141.577,575.03 -179.426,596.831 -187.126,601.271 
	-201.176,609.36 -216.426,618.15 -253.256,639.371 -268.426,630.641 -268.426,588.101 -253.247,579.351 -216.426,558.141 
	-193.667,545.03 -179.426,536.82 -178.586,536.341 -169.876,541.36 -141.426,557.751 -130.707,563.931 "/>
<polygon fill="#8635EF" points="-200.936,609.501 -219.426,620.15 -253.026,639.511 -253.056,639.49 -253.256,639.371 
	-268.426,630.641 -271.426,628.911 -278.426,624.881 -325.326,597.86 -328.426,596.07 -379.266,566.78 -380.426,566.11 
	-380.426,506.091 -340.556,529.061 -328.426,536.051 -253.247,579.351 -253.046,579.471 -253.016,579.49 -201.176,609.36 
	-200.966,609.48 "/>
<polygon opacity="0.1" fill="#020202" points="-325.326,597.86 -328.426,596.07 -379.266,566.78 -380.426,547.421 -380.426,473.841 
	-369.406,479.351 -348.426,489.831 -340.556,529.061 -338.266,540.48 -336.716,541.001 -336.706,541.061 -328.516,544.171 
	-328.426,545.69 "/>
<polygon fill="#C51F1F" points="-328.426,390.141 -328.426,596.07 -379.266,566.78 -380.426,566.11 -380.426,420.101 "/>
<polygon opacity="0.1" fill="#020202" points="-278.506,387.511 -280.426,401.141 -283.667,424.37 -328.426,450.151 
	-328.426,451.78 -328.486,451.811 -328.816,460.571 -380.426,481.411 -380.426,477.571 -379.926,475.28 -367.886,420.261 
	-367.486,420.11 -329.406,404.7 -328.426,404.311 -326.656,403.601 -317.346,399.831 "/>
<polygon fill="#D63810" points="-201.486,377.03 -211.766,382.95 -253.577,407.03 -261.167,411.411 -283.667,424.37 
	-328.426,450.151 -380.426,480.11 -380.426,420.101 -328.426,390.141 -305.667,377.03 -253.577,347.021 "/>
<polygon opacity="0.1" fill="#020202" points="-172.546,415.171 -185.106,420.801 -210.157,432.051 -253.577,407.03 
	-261.167,411.411 -307.066,378.2 -304.956,377.44 -300.806,375.95 -247.806,356.891 -247.457,357.151 -214.167,381.21 
	-211.766,382.95 -203.626,388.831 "/>
<polygon fill="#BFD645" points="-127.426,419.69 -127.426,471.95 -129.426,473.101 -134.167,475.831 -178.426,450.331 
	-179.426,449.751 -180.356,449.221 -210.157,432.051 -253.577,407.03 -304.956,377.44 -305.667,377.03 -253.577,347.021 
	-201.486,377.03 -185.186,386.421 -179.426,389.741 -130.617,417.851 -128.236,419.221 "/>
<polygon opacity="0.1" fill="#020202" points="-126.426,472.21 -126.426,512.95 -138.846,507.011 -177.316,488.631 
	-178.426,474.221 -178.426,450.331 -179.426,449.751 -180.356,449.221 -185.186,386.421 -179.426,389.741 -130.617,417.851 
	-130.586,418.29 -127.426,459.241 "/>
<polygon fill="#70BF15" points="-126.426,421.7 -126.426,529.71 -141.486,521.03 -178.426,499.751 -178.426,390.741 
	-130.586,418.29 -127.426,420.11 -127.236,420.221 "/>
<polygon fill="#1F9BCC" points="-211.506,301.351 -213.037,302.23 -226.577,310.03 -264.426,331.831 -272.126,336.271 
	-286.176,344.36 -301.426,353.15 -338.256,374.371 -353.426,365.641 -353.426,323.101 -338.247,314.351 -301.426,293.141 
	-278.667,280.03 -264.426,271.82 -263.586,271.341 -254.876,276.36 -226.426,292.751 -215.707,298.931 "/>
<polygon fill="#8635EF" points="-285.936,344.501 -304.426,355.15 -338.026,374.511 -338.056,374.49 -338.256,374.371 
	-353.426,365.641 -356.426,363.911 -363.426,359.881 -410.326,332.86 -413.426,331.07 -464.266,301.78 -465.426,301.11 
	-465.426,241.091 -425.556,264.061 -413.426,271.051 -338.247,314.351 -338.046,314.471 -338.016,314.49 -286.176,344.36 
	-285.966,344.48 "/>
<polygon opacity="0.1" fill="#020202" points="-410.326,332.86 -413.426,331.07 -464.266,301.78 -465.426,282.421 -465.426,208.841 
	-454.406,214.351 -433.426,224.831 -425.556,264.061 -423.266,275.48 -421.716,276.001 -421.706,276.061 -413.516,279.171 
	-413.426,280.69 "/>
<polygon fill="#C51F1F" points="-413.426,125.141 -413.426,331.07 -464.266,301.78 -465.426,301.11 -465.426,155.101 "/>
<polygon opacity="0.1" fill="#020202" points="-363.506,122.511 -365.426,136.141 -368.667,159.37 -413.426,185.151 
	-413.426,186.78 -413.486,186.811 -413.816,195.571 -465.426,216.411 -465.426,212.571 -464.926,210.28 -452.886,155.261 
	-452.486,155.11 -414.406,139.7 -413.426,139.311 -411.656,138.601 -402.346,134.831 "/>
<polygon fill="#D63810" points="-286.486,112.03 -296.766,117.95 -338.577,142.03 -346.167,146.411 -368.667,159.37 
	-413.426,185.151 -465.426,215.11 -465.426,155.101 -413.426,125.141 -390.667,112.03 -338.577,82.021 "/>
<polygon opacity="0.1" fill="#020202" points="-257.546,150.171 -270.106,155.801 -295.157,167.051 -338.577,142.03 
	-346.167,146.411 -392.066,113.2 -389.956,112.44 -385.806,110.95 -332.806,91.891 -332.457,92.151 -299.167,116.21 
	-296.766,117.95 -288.626,123.831 "/>
<polygon fill="#BFD645" points="-212.426,154.69 -212.426,206.95 -214.426,208.101 -219.167,210.831 -263.426,185.331 
	-264.426,184.751 -265.356,184.221 -295.157,167.051 -338.577,142.03 -389.956,112.44 -390.667,112.03 -338.577,82.021 
	-286.486,112.03 -270.186,121.421 -264.426,124.741 -215.617,152.851 -213.236,154.221 "/>
<polygon opacity="0.1" fill="#020202" points="-211.426,207.21 -211.426,247.95 -223.846,242.011 -262.316,223.631 
	-263.426,209.221 -263.426,185.331 -264.426,184.751 -265.356,184.221 -270.186,121.421 -264.426,124.741 -215.617,152.851 
	-215.586,153.29 -212.426,194.241 "/>
<polygon fill="#70BF15" points="-211.426,156.7 -211.426,264.71 -226.486,256.03 -263.426,234.751 -263.426,125.741 
	-215.586,153.29 -212.426,155.11 -212.236,155.221 "/>
<polygon fill="#1F9BCC" points="425.494,257.351 423.963,258.23 410.423,266.03 372.574,287.831 364.874,292.271 350.824,300.36 
	335.574,309.15 298.744,330.371 283.574,321.641 283.574,279.101 298.753,270.351 305.934,266.211 335.574,249.141 358.333,236.03 
	372.574,227.821 373.414,227.341 382.124,232.36 410.574,248.751 421.293,254.931 "/>
<polygon opacity="0.1" fill="#020202" points="350.024,300.061 346.554,301.171 289.753,319.411 283.574,314.69 273.324,306.851 
	213.793,255.761 225.423,251.221 247.574,242.581 284.434,263.841 295.244,269.921 296.564,269.091 298.753,270.351 
	305.934,266.211 349.184,299.411 "/>
<polygon fill="#8635EF" points="351.064,300.501 332.574,311.15 298.974,330.511 298.944,330.49 298.744,330.371 283.574,321.641 
	280.574,319.911 273.574,315.881 226.673,288.86 223.574,287.07 172.734,257.78 171.574,257.11 171.574,197.091 211.444,220.061 
	223.574,227.051 296.564,269.091 298.753,270.351 298.954,270.471 298.984,270.49 349.184,299.411 350.824,300.36 351.034,300.48 
	"/>
<polygon opacity="0.1" fill="#020202" points="223.605,283.106 220.826,280.854 175.226,243.993 177.125,224.743 188.693,152.273 
	198.708,159.438 217.779,173.067 219.382,212.944 219.987,224.553 221.574,225.31 221.574,225.37 229.035,229.725 228.816,231.234 
	"/>
<polygon id="red" fill="#C51F1F" points="223.574,81.141 223.574,287.07 172.734,257.78 171.574,257.11 171.574,111.101 "/>
<polygon opacity="0.1" fill="#020202" points="273.494,78.511 271.574,92.141 268.333,115.37 223.574,141.151 223.574,142.78 
	223.513,142.811 223.183,151.571 171.574,172.411 171.574,168.571 172.074,166.28 184.114,111.261 184.513,111.11 222.593,95.7 
	223.574,95.311 225.343,94.601 234.654,90.831 "/>
<polygon fill="#FFA500" points="350.514,68.03 340.234,73.95 298.423,98.03 290.833,102.411 268.333,115.37 223.574,141.151 
	171.574,171.11 171.574,111.101 223.574,81.141 246.333,68.03 298.423,38.021 "/>
<polygon opacity="0.1" fill="#020202" points="379.454,106.171 366.894,111.801 341.843,123.051 298.423,98.03 290.833,102.411 
	244.933,69.2 247.044,68.44 251.194,66.95 304.194,47.891 304.543,48.151 337.833,72.21 340.234,73.95 348.374,79.831 "/>
<polygon fill="#BFD645" points="424.574,110.69 424.574,162.95 422.574,164.101 417.833,166.831 373.574,141.331 372.574,140.751 
	371.644,140.221 341.843,123.051 298.423,98.03 247.044,68.44 246.333,68.03 298.423,38.021 350.514,68.03 366.814,77.421 
	372.574,80.741 421.383,108.851 423.764,110.221 "/>
<polygon opacity="0.1" fill="#020202" points="425.574,163.21 425.574,203.95 413.154,198.011 374.684,179.631 373.574,165.221 
	373.574,141.331 372.574,140.751 371.644,140.221 366.814,77.421 372.574,80.741 421.383,108.851 421.414,109.29 424.574,150.241 
	"/>
<polygon fill="#70BF15" points="425.574,112.7 425.574,220.71 410.514,212.03 373.574,190.751 373.574,81.741 421.414,109.29 
	424.574,111.11 424.764,111.221 "/>
<polygon fill="#1F9BCC" points="667.614,-124.499 644.593,-111.239 630.574,-103.169 622.874,-98.729 618.503,-96.209 
	615.513,-94.489 608.824,-90.64 599.833,-85.459 593.574,-81.85 592.494,-81.229 556.744,-60.629 541.574,-69.359 541.574,-111.899 
	556.753,-120.649 563.444,-124.499 592.513,-141.249 593.574,-141.859 615.524,-154.51 625.814,-148.579 631.574,-145.26 "/>
<polygon opacity="0.1" fill="#020202" points="615.513,-94.489 608.824,-90.64 609.034,-90.52 609.064,-90.499 600.954,-85.829 
	599.833,-85.459 562.894,-73.249 562.554,-73.51 541.574,-89.52 529.894,-98.43 529.064,-99.069 527.544,-100.229 519.564,-106.319 
	489.164,-133.459 501.874,-138.76 515.454,-144.439 556.753,-120.649 563.444,-124.499 564.134,-124.899 568.503,-122.43 
	569.904,-123.26 569.964,-123.22 577.673,-127.399 618.503,-96.209 "/>
<polygon fill="#1F9BCC" points="609.064,-90.499 600.954,-85.829 590.574,-79.85 556.974,-60.489 556.944,-60.51 556.744,-60.629 
	541.574,-69.359 538.574,-71.089 531.574,-75.119 484.673,-102.14 481.574,-103.93 430.734,-133.22 429.574,-133.89 
	429.574,-193.909 469.444,-170.939 481.574,-163.949 515.454,-144.439 556.753,-120.649 556.954,-120.529 556.984,-120.51 
	608.824,-90.64 609.034,-90.52 "/>
<polygon opacity="0.1" fill="#020202" points="481.605,-106.894 478.826,-109.146 433.226,-146.007 435.125,-165.257 
	446.693,-237.727 456.708,-230.563 475.779,-216.933 477.382,-177.056 477.987,-165.447 479.574,-164.69 479.574,-164.63 
	487.035,-160.275 486.816,-158.766 "/>
<polygon fill="#D63810" points="481.574,-309.859 481.574,-103.93 430.734,-133.22 429.574,-133.89 429.574,-279.899 "/>
<polygon opacity="0.1" fill="#020202" points="531.494,-312.489 529.574,-298.859 526.333,-275.63 481.574,-249.849 
	481.574,-248.22 481.513,-248.189 481.183,-239.429 429.574,-218.589 429.574,-222.429 430.074,-224.72 442.114,-279.739 
	442.513,-279.89 480.593,-295.3 481.574,-295.689 483.343,-296.399 492.654,-300.169 "/>
<polygon fill="#D63810" points="608.514,-322.97 598.234,-317.05 556.423,-292.97 548.833,-288.589 526.333,-275.63 
	481.574,-249.849 429.574,-219.89 429.574,-279.899 481.574,-309.859 504.333,-322.97 556.423,-352.979 "/>
<polygon opacity="0.1" fill="#020202" points="637.454,-284.829 624.894,-279.199 599.843,-267.949 556.423,-292.97 
	548.833,-288.589 502.933,-321.8 505.044,-322.56 509.194,-324.05 562.194,-343.109 562.543,-342.849 595.833,-318.79 
	598.234,-317.05 606.374,-311.169 "/>
<polygon fill="#70BF15" points="682.574,-280.31 682.574,-228.05 680.574,-226.899 675.833,-224.169 631.574,-249.669 
	630.574,-250.249 629.644,-250.779 599.843,-267.949 556.423,-292.97 505.044,-322.56 504.333,-322.97 556.423,-352.979 
	608.514,-322.97 624.814,-313.579 630.574,-310.259 679.383,-282.149 681.764,-280.779 "/>
<polygon fill="#1F9BCC" points="683.574,-115.31 683.574,-63.05 681.574,-61.899 676.833,-59.169 632.574,-84.669 631.574,-85.249 
	630.644,-85.779 615.513,-94.489 600.843,-102.949 563.444,-124.499 592.513,-141.249 593.574,-141.859 615.524,-154.51 
	625.814,-148.579 631.574,-145.26 667.614,-124.499 680.384,-117.149 682.763,-115.779 "/>
<polygon opacity="0.1" fill="#020202" points="683.574,-227.79 683.574,-187.05 671.154,-192.989 632.684,-211.369 
	631.574,-225.779 631.574,-249.669 630.574,-250.249 629.644,-250.779 624.814,-313.579 630.574,-310.259 679.383,-282.149 
	679.414,-281.71 682.574,-240.759 "/>
<polygon fill="#70BF15" points="683.574,-278.3 683.574,-135.289 683.444,-135.369 668.513,-143.97 631.574,-165.249 
	631.574,-309.26 679.414,-281.709 682.574,-279.89 682.763,-279.779 "/>
<polygon opacity="0.1" points="683.574,-198.459 683.574,-138.439 683.444,-138.369 670.564,-130.949 669.614,-131.499 
	633.574,-152.26 631.574,-153.409 627.814,-155.579 621.083,-159.459 631.574,-165.499 631.574,-168.499 639.333,-172.97 "/>
<polygon fill="#70BF15" points="683.574,-195.459 683.574,-135.439 683.444,-135.369 670.564,-127.949 669.614,-128.499 
	633.574,-149.26 631.574,-150.409 627.814,-152.579 618.484,-157.959 621.083,-159.459 631.574,-165.499 639.333,-169.97 "/>
<polygon fill="#70BF15" points="368.614,-129.499 345.593,-116.239 331.574,-108.169 323.874,-103.729 319.503,-101.209 
	316.513,-99.489 309.824,-95.64 300.833,-90.459 294.574,-86.85 293.494,-86.229 257.744,-65.629 242.574,-74.359 242.574,-116.899 
	257.753,-125.649 264.444,-129.499 293.513,-146.249 294.574,-146.859 316.524,-159.51 326.814,-153.579 332.574,-150.26 "/>
<polygon opacity="0.1" fill="#020202" points="316.513,-99.489 309.824,-95.64 310.034,-95.52 310.064,-95.499 301.954,-90.829 
	300.833,-90.459 263.894,-78.249 263.554,-78.51 242.574,-94.52 230.894,-103.43 230.064,-104.069 228.544,-105.229 
	220.564,-111.319 190.164,-138.459 202.874,-143.76 216.454,-149.439 257.753,-125.649 264.444,-129.499 265.134,-129.899 
	269.503,-127.43 270.904,-128.26 270.964,-128.22 278.673,-132.399 319.503,-101.209 "/>
<polygon fill="#70BF15" points="310.064,-95.499 301.954,-90.829 291.574,-84.85 257.974,-65.489 257.944,-65.51 257.744,-65.629 
	242.574,-74.359 239.574,-76.089 232.574,-80.119 185.673,-107.14 182.574,-108.93 131.734,-138.22 130.574,-138.89 
	130.574,-198.909 170.444,-175.939 182.574,-168.949 216.454,-149.439 257.753,-125.649 257.954,-125.529 257.984,-125.51 
	309.824,-95.64 310.034,-95.52 "/>
<polygon opacity="0.1" fill="#020202" points="182.605,-111.894 179.826,-114.146 134.226,-151.007 136.125,-170.257 
	147.693,-242.727 157.708,-235.563 176.779,-221.933 178.382,-182.056 178.987,-170.447 180.574,-169.69 180.574,-169.63 
	188.035,-165.275 187.816,-163.766 "/>
<polygon fill="#70BF15" points="182.574,-314.859 182.574,-108.93 131.734,-138.22 130.574,-138.89 130.574,-284.899 "/>
<polygon opacity="0.1" fill="#020202" points="232.494,-317.489 230.574,-303.859 227.333,-280.63 182.574,-254.849 
	182.574,-253.22 182.513,-253.189 182.183,-244.429 130.574,-223.589 130.574,-227.429 131.074,-229.72 143.114,-284.739 
	143.513,-284.89 181.593,-300.3 182.574,-300.689 184.343,-301.399 193.654,-305.169 "/>
<polygon fill="#70BF15" points="309.514,-327.97 299.234,-322.05 257.423,-297.97 249.833,-293.589 227.333,-280.63 
	182.574,-254.849 130.574,-224.89 130.574,-284.899 182.574,-314.859 205.333,-327.97 257.423,-357.979 "/>
<polygon opacity="0.1" fill="#020202" points="338.454,-289.829 325.894,-284.199 300.843,-272.949 257.423,-297.97 
	249.833,-293.589 203.933,-326.8 206.044,-327.56 210.194,-329.05 263.194,-348.109 263.543,-347.849 296.833,-323.79 
	299.234,-322.05 307.374,-316.169 "/>
<polygon fill="#70BF15" points="383.574,-285.31 383.574,-233.05 381.574,-231.899 376.833,-229.169 332.574,-254.669 
	331.574,-255.249 330.644,-255.779 300.843,-272.949 257.423,-297.97 206.044,-327.56 205.333,-327.97 257.423,-357.979 
	309.514,-327.97 325.814,-318.579 331.574,-315.259 380.383,-287.149 382.764,-285.779 "/>
<polygon fill="#70BF15" points="384.574,-120.31 384.574,-68.05 382.574,-66.899 377.833,-64.169 333.574,-89.669 332.574,-90.249 
	331.644,-90.779 316.513,-99.489 301.843,-107.949 264.444,-129.499 293.513,-146.249 294.574,-146.859 316.524,-159.51 
	326.814,-153.579 332.574,-150.26 368.614,-129.499 381.384,-122.149 383.763,-120.779 "/>
<polygon opacity="0.1" fill="#020202" points="384.574,-232.79 384.574,-192.05 372.154,-197.989 333.684,-216.369 
	332.574,-230.779 332.574,-254.669 331.574,-255.249 330.644,-255.779 325.814,-318.579 331.574,-315.259 380.383,-287.149 
	380.414,-286.71 383.574,-245.759 "/>
<polygon fill="#70BF15" points="384.574,-283.3 384.574,-140.289 384.444,-140.369 369.513,-148.97 332.574,-170.249 
	332.574,-314.26 380.414,-286.709 383.574,-284.89 383.763,-284.779 "/>
<polygon opacity="0.1" points="384.574,-203.459 384.574,-143.439 384.444,-143.369 371.564,-135.949 370.614,-136.499 
	334.574,-157.26 332.574,-158.409 328.814,-160.579 322.083,-164.459 332.574,-170.499 332.574,-173.499 340.333,-177.97 "/>
<polygon fill="#70BF15" points="384.574,-200.459 384.574,-140.439 384.444,-140.369 371.564,-132.949 370.614,-133.499 
	334.574,-154.26 332.574,-155.409 328.814,-157.579 319.484,-162.959 322.083,-164.459 332.574,-170.499 340.333,-174.97 "/>
<g>
	<path fill="#2B2B2B" d="M705.322,276.167v68.46h-14.449l0.246-5.688c-0.984,2.309-2.197,4.04-3.639,5.194s-3.1,1.731-4.975,1.731
		c-2.133,0-3.902-0.55-5.309-1.651c-1.406-1.1-2.443-2.561-3.111-4.385c-0.668-1.822-1.084-3.722-1.248-5.701
		c-0.164-1.977-0.246-5.906-0.246-11.787v-46.174h14.203v46.586c0,5.332,0.111,8.495,0.334,9.492c0.223,1,0.826,1.496,1.811,1.496
		c1.055,0,1.682-0.516,1.881-1.547c0.199-1.032,0.299-4.352,0.299-9.957v-46.07H705.322z"/>
	<path fill="#2B2B2B" d="M723.388,261.104v10.886h-14.625v-10.886H723.388z M723.388,276.167v68.46h-14.625v-68.46H723.388z"/>
	<path fill="#2B2B2B" d="M758.225,302.015h-13.395v-7.894c0-2.751-0.152-4.618-0.457-5.598c-0.305-0.98-0.867-1.47-1.688-1.47
		s-1.371,0.431-1.652,1.289c-0.281,0.859-0.422,2.786-0.422,5.778v32.295c0,2.443,0.211,4.274,0.633,5.494
		c0.422,1.222,1.043,1.831,1.863,1.831c0.961,0,1.611-0.636,1.951-1.908c0.34-1.271,0.51-3.68,0.51-7.223v-8.151h12.656
		c-0.023,5.469-0.158,9.569-0.404,12.304s-1.031,5.539-2.355,8.41s-3.053,5.038-5.186,6.5c-2.133,1.461-4.77,2.192-7.91,2.192
		c-4.008,0-7.184-1.006-9.527-3.019c-2.344-2.012-4.002-4.83-4.975-8.46c-0.973-3.628-1.459-8.777-1.459-15.451v-19.449
		c0-5.812,0.398-10.196,1.195-13.155c0.797-2.958,2.496-5.598,5.098-7.92c2.602-2.32,5.766-3.481,9.492-3.481
		c3.703,0,6.867,1.153,9.492,3.456c2.625,2.305,4.371,5.211,5.238,8.719S758.225,295.584,758.225,302.015z"/>
	<path fill="#2B2B2B" d="M791.374,276.167l-5.766,27.266l7.488,41.194h-13.658l-4.43-29.837l-0.018,29.837h-14.203v-83.523h14.203
		l0.018,35.063l4.43-19.999H791.374z"/>
	<path fill="#FFA500" d="M808.174,261.104v83.523h-14.625v-83.523H808.174z"/>
	<path fill="#2B2B2B" d="M826.241,261.104v10.886h-14.625v-10.886H826.241z M826.241,276.167v68.46h-14.625v-68.46H826.241z"/>
	<path fill="#2B2B2B" d="M844.132,276.167l-0.246,6.308c1.031-2.515,2.291-4.401,3.779-5.659c1.488-1.257,3.205-1.886,5.15-1.886
		c2.438,0,4.43,0.844,5.977,2.528s2.543,3.811,2.988,6.371c0.445,2.563,0.668,6.836,0.668,12.82v47.978h-14.203v-47.411
		c0-4.711-0.105-7.583-0.316-8.615c-0.211-1.031-0.797-1.547-1.758-1.547c-1.008,0-1.641,0.593-1.898,1.779
		s-0.387,4.359-0.387,9.518v46.276h-14.203v-68.46H844.132z"/>
	<path fill="#2B2B2B" d="M897.847,311.61H879.46v14.806c0,3.095,0.152,5.091,0.457,5.984c0.305,0.896,0.891,1.341,1.758,1.341
		c1.078,0,1.799-0.593,2.162-1.779s0.545-3.482,0.545-6.887v-9.029h13.465v5.057c0,4.23-0.182,7.48-0.545,9.75
		s-1.213,4.695-2.549,7.274s-3.029,4.514-5.08,5.804c-2.051,1.289-4.623,1.935-7.717,1.935c-3,0-5.648-0.638-7.945-1.909
		c-2.297-1.271-4.084-3.018-5.361-5.236c-1.277-2.218-2.162-4.66-2.654-7.325c-0.492-2.664-0.738-6.544-0.738-11.634v-19.965
		c0-5.984,0.551-10.705,1.652-14.162c1.102-3.456,2.906-6.104,5.414-7.944c2.508-1.839,5.391-2.76,8.648-2.76
		c3.984,0,7.271,1.108,9.861,3.327s4.406,5.159,5.449,8.822c1.043,3.662,1.564,8.814,1.564,15.451V311.61z M883.609,300.466v-5.004
		c0-3.541-0.129-5.829-0.387-6.861c-0.258-1.031-0.785-1.547-1.582-1.547c-0.984,0-1.594,0.438-1.828,1.314
		s-0.352,3.244-0.352,7.094v5.004H883.609z"/>
	<path fill="#FFA500" d="M932.226,302.015h-13.395v-7.894c0-2.751-0.152-4.618-0.457-5.598c-0.305-0.98-0.867-1.47-1.688-1.47
		s-1.371,0.431-1.652,1.289c-0.281,0.859-0.422,2.786-0.422,5.778v32.295c0,2.443,0.211,4.274,0.633,5.494
		c0.422,1.222,1.043,1.831,1.863,1.831c0.961,0,1.611-0.636,1.951-1.908c0.34-1.271,0.51-3.68,0.51-7.223v-8.151h12.656
		c-0.023,5.469-0.158,9.569-0.404,12.304s-1.031,5.539-2.355,8.41s-3.053,5.038-5.186,6.5c-2.133,1.461-4.77,2.192-7.91,2.192
		c-4.008,0-7.184-1.006-9.527-3.019c-2.344-2.012-4.002-4.83-4.975-8.46c-0.973-3.628-1.459-8.777-1.459-15.451v-19.449
		c0-5.812,0.398-10.196,1.195-13.155c0.797-2.958,2.496-5.598,5.098-7.92c2.602-2.32,5.766-3.481,9.492-3.481
		c3.703,0,6.867,1.153,9.492,3.456c2.625,2.305,4.371,5.211,5.238,8.719S932.226,295.584,932.226,302.015z"/>
	<path fill="#2B2B2B" d="M948.992,276.167l-0.563,9.003c2.063-6.447,5.051-9.86,8.965-10.24v24.093c-2.602,0-4.512,0.516-5.73,1.547
		c-1.219,1.032-1.969,2.469-2.25,4.309s-0.422,6.08-0.422,12.717v27.032h-14.203v-68.46H948.992z"/>
	<path fill="#2B2B2B" d="M991.071,311.61h-18.387v14.806c0,3.095,0.152,5.091,0.457,5.984c0.305,0.896,0.891,1.341,1.758,1.341
		c1.078,0,1.799-0.593,2.162-1.779s0.545-3.482,0.545-6.887v-9.029h13.465v5.057c0,4.23-0.182,7.48-0.545,9.75
		s-1.213,4.695-2.549,7.274s-3.029,4.514-5.08,5.804c-2.051,1.289-4.623,1.935-7.717,1.935c-3,0-5.648-0.638-7.945-1.909
		c-2.297-1.271-4.084-3.018-5.361-5.236c-1.277-2.218-2.162-4.66-2.654-7.325c-0.492-2.664-0.738-6.544-0.738-11.634v-19.965
		c0-5.984,0.551-10.705,1.652-14.162c1.102-3.456,2.906-6.104,5.414-7.944c2.508-1.839,5.391-2.76,8.648-2.76
		c3.984,0,7.271,1.108,9.861,3.327s4.406,5.159,5.449,8.822c1.043,3.662,1.564,8.814,1.564,15.451V311.61z M976.833,300.466v-5.004
		c0-3.541-0.129-5.829-0.387-6.861c-0.258-1.031-0.785-1.547-1.582-1.547c-0.984,0-1.594,0.438-1.828,1.314
		s-0.352,3.244-0.352,7.094v5.004H976.833z"/>
	<path fill="#2B2B2B" d="M1026.364,261.104v83.523h-14.203v-4.966c-1.359,2.07-2.789,3.62-4.289,4.653s-3.07,1.551-4.711,1.551
		c-2.203,0-4.113-0.851-5.73-2.554s-2.654-3.67-3.111-5.907c-0.457-2.235-0.686-5.881-0.686-10.937v-32.037
		c0-5.262,0.229-8.994,0.686-11.195c0.457-2.199,1.506-4.135,3.146-5.804c1.641-1.668,3.598-2.502,5.871-2.502
		c1.758,0,3.369,0.466,4.834,1.396c1.465,0.932,2.795,2.327,3.99,4.189v-19.411H1026.364z M1012.161,293.398
		c0-2.509-0.146-4.196-0.439-5.056c-0.293-0.858-0.873-1.289-1.74-1.289c-0.844,0-1.412,0.387-1.705,1.16s-0.439,2.502-0.439,5.185
		v33.533c0,2.786,0.141,4.618,0.422,5.495s0.82,1.314,1.617,1.314c0.914,0,1.523-0.49,1.828-1.47c0.305-0.98,0.457-3.38,0.457-7.196
		V293.398z"/>
	<path fill="#2B2B2B" d="M1044.43,261.104v10.886h-14.625v-10.886H1044.43z M1044.43,276.167v68.46h-14.625v-68.46H1044.43z"/>
	<path fill="#2B2B2B" d="M1062.848,267.036v10.782h3.832v10.834h-3.832v36.628c0,4.508,0.158,7.018,0.475,7.533
		s1.635,0.773,3.955,0.773v11.04h-5.73c-3.234,0-5.543-0.198-6.926-0.593s-2.602-1.307-3.656-2.734
		c-1.055-1.426-1.711-3.061-1.969-4.901c-0.258-1.839-0.387-6.165-0.387-12.975v-34.771h-3.059v-10.834h3.059v-10.782H1062.848z"/>
</g>
<rect x="674.574" y="350.181" fill="#2B2B2B" width="394" height="5"/>
<path fill="#70BF15" d="M-36.426-255.314"/>
<polygon fill="#FFA500" points="977.614,-116.499 954.593,-103.239 940.574,-95.169 932.874,-90.729 928.503,-88.209 
	925.513,-86.489 918.824,-82.64 909.833,-77.459 903.574,-73.85 902.494,-73.229 866.744,-52.629 851.574,-61.359 851.574,-103.899 
	866.753,-112.649 873.444,-116.499 902.513,-133.249 903.574,-133.859 925.524,-146.51 935.814,-140.579 941.574,-137.26 "/>
<polygon opacity="0.1" fill="#020202" points="925.513,-86.489 918.824,-82.64 919.034,-82.52 919.064,-82.499 910.954,-77.829 
	909.833,-77.459 872.894,-65.249 872.554,-65.51 851.574,-81.52 839.894,-90.43 839.064,-91.069 837.544,-92.229 829.564,-98.319 
	799.164,-125.459 811.874,-130.76 825.454,-136.439 866.753,-112.649 873.444,-116.499 874.134,-116.899 878.503,-114.43 
	879.904,-115.26 879.964,-115.22 887.673,-119.399 928.503,-88.209 "/>
<polygon fill="#FFA500" points="919.064,-82.499 910.954,-77.829 900.574,-71.85 866.974,-52.489 866.944,-52.51 866.744,-52.629 
	851.574,-61.359 848.574,-63.089 841.574,-67.119 794.673,-94.14 791.574,-95.93 740.734,-125.22 739.574,-125.89 739.574,-185.909 
	779.444,-162.939 791.574,-155.949 825.454,-136.439 866.753,-112.649 866.954,-112.529 866.984,-112.51 918.824,-82.64 
	919.034,-82.52 "/>
<polygon opacity="0.1" fill="#020202" points="791.605,-98.894 788.826,-101.146 743.226,-138.007 745.125,-157.257 
	756.693,-229.727 766.708,-222.563 785.779,-208.933 787.382,-169.056 787.987,-157.447 789.574,-156.69 789.574,-156.63 
	797.035,-152.275 796.816,-150.766 "/>
<polygon fill="#FFA500" points="791.574,-301.859 791.574,-95.93 740.734,-125.22 739.574,-125.89 739.574,-271.899 "/>
<polygon opacity="0.1" fill="#020202" points="841.494,-304.489 839.574,-290.859 836.333,-267.63 791.574,-241.849 
	791.574,-240.22 791.513,-240.189 791.183,-231.429 739.574,-210.589 739.574,-214.429 740.074,-216.72 752.114,-271.739 
	752.513,-271.89 790.593,-287.3 791.574,-287.689 793.343,-288.399 802.654,-292.169 "/>
<polygon fill="#FFA500" points="918.514,-314.97 908.234,-309.05 866.423,-284.97 858.833,-280.589 836.333,-267.63 
	791.574,-241.849 739.574,-211.89 739.574,-271.899 791.574,-301.859 814.333,-314.97 866.423,-344.979 "/>
<polygon opacity="0.1" fill="#020202" points="947.454,-276.829 934.894,-271.199 909.843,-259.949 866.423,-284.97 
	858.833,-280.589 812.933,-313.8 815.044,-314.56 819.194,-316.05 872.194,-335.109 872.543,-334.849 905.833,-310.79 
	908.234,-309.05 916.374,-303.169 "/>
<polygon fill="#FFA500" points="992.574,-272.31 992.574,-220.05 990.574,-218.899 985.833,-216.169 941.574,-241.669 
	940.574,-242.249 939.644,-242.779 909.843,-259.949 866.423,-284.97 815.044,-314.56 814.333,-314.97 866.423,-344.979 
	918.514,-314.97 934.814,-305.579 940.574,-302.259 989.383,-274.149 991.764,-272.779 "/>
<polygon fill="#FFA500" points="993.574,-107.31 993.574,-55.05 991.574,-53.899 986.833,-51.169 942.574,-76.669 941.574,-77.249 
	940.644,-77.779 925.513,-86.489 910.843,-94.949 873.444,-116.499 902.513,-133.249 903.574,-133.859 925.524,-146.51 
	935.814,-140.579 941.574,-137.26 977.614,-116.499 990.384,-109.149 992.763,-107.779 "/>
<polygon opacity="0.1" fill="#020202" points="993.574,-219.79 993.574,-179.05 981.154,-184.989 942.684,-203.369 
	941.574,-217.779 941.574,-241.669 940.574,-242.249 939.644,-242.779 934.814,-305.579 940.574,-302.259 989.383,-274.149 
	989.414,-273.71 992.574,-232.759 "/>
<polygon fill="#FFA500" points="993.574,-270.3 993.574,-127.289 993.444,-127.369 978.513,-135.97 941.574,-157.249 
	941.574,-301.26 989.414,-273.709 992.574,-271.89 992.763,-271.779 "/>
<polygon opacity="0.1" points="993.574,-190.459 993.574,-130.439 993.444,-130.369 980.564,-122.949 979.614,-123.499 
	943.574,-144.26 941.574,-145.409 937.814,-147.579 931.083,-151.459 941.574,-157.499 941.574,-160.499 949.333,-164.97 "/>
<polygon fill="#FFA500" points="993.574,-187.459 993.574,-127.439 993.444,-127.369 980.564,-119.949 979.614,-120.499 
	943.574,-141.26 941.574,-142.409 937.814,-144.579 928.484,-149.959 931.083,-151.459 941.574,-157.499 949.333,-161.97 "/>
<g>
	<polygon fill="#FFA500" points="657.341,334.39 649.433,338.944 644.618,341.717 641.972,343.242 640.471,344.107 639.445,344.698 
		637.146,346.021 634.058,347.801 631.908,349.04 631.537,349.253 619.521,356.329 614.574,353.331 614.574,338.718 
		619.524,335.712 621.691,334.39 631.61,328.637 631.941,328.427 639.464,324.081 642.992,326.118 644.965,327.259 	"/>
	<polygon opacity="0.1" fill="#020202" points="639.445,344.698 637.146,346.021 637.218,346.062 637.229,346.069 634.443,347.673 
		634.058,347.801 621.37,351.995 621.253,351.905 614.046,346.405 610.035,343.345 609.75,343.125 609.226,342.727 606.486,340.635 
		596.042,331.313 600.409,329.491 605.074,327.54 619.26,335.712 621.558,334.39 621.795,334.253 623.296,335.101 623.777,334.815 
		623.798,334.829 626.447,333.394 640.471,344.107 	"/>
	<polygon fill="#FFA500" points="637.229,346.069 634.443,347.673 630.877,349.728 619.336,356.378 619.326,356.37 619.257,356.329 
		614.046,353.331 613.015,352.736 610.611,351.353 594.5,342.071 593.435,341.456 575.972,331.395 575.574,331.165 575.574,310.548 
		589.269,318.438 593.435,320.839 605.074,327.54 619.26,335.712 619.33,335.753 619.339,335.761 637.146,346.021 637.218,346.062 	
		"/>
	<polygon opacity="0.1" fill="#020202" points="593.447,340.438 592.492,339.663 576.828,327.002 577.48,320.39 581.455,295.497 
		584.894,297.957 591.445,302.639 591.996,316.337 592.117,320.325 592.574,320.584 592.574,320.605 595.224,322.101 
		595.193,322.619 	"/>
	<polygon fill="#FFA500" points="593.574,270.718 593.574,341.456 576.042,331.395 575.574,331.165 575.574,281.009 	"/>
	<polygon opacity="0.1" fill="#020202" points="610.583,269.815 609.923,274.497 608.88,282.477 593.574,291.333 593.574,291.892 
		593.484,291.902 593.336,294.911 575.574,302.069 575.574,300.751 575.746,299.964 579.881,281.064 580.019,281.013 
		593.099,275.72 593.435,275.586 594.043,275.342 597.242,274.047 	"/>
	<polygon fill="#FFA500" points="637.041,266.215 633.509,268.249 619.147,276.521 616.54,278.024 608.811,282.477 593.435,291.333 
		575.574,301.623 575.574,281.009 593.435,270.718 601.253,266.215 619.147,255.907 	"/>
	<polygon opacity="0.1" fill="#020202" points="646.981,279.315 642.667,281.25 634.062,285.114 619.147,276.521 616.54,278.024 
		600.773,266.616 601.498,266.356 602.923,265.845 621.128,259.297 621.25,259.386 632.684,267.65 633.509,268.249 636.304,270.269 
			"/>
	<polygon fill="#FFA500" points="662.574,280.869 662.574,298.82 661.839,299.216 660.188,300.153 644.973,291.395 644.623,291.194 
		644.301,291.013 634.064,285.114 619.148,276.521 601.499,266.356 601.253,266.215 619.147,255.907 637.041,266.215 
		642.639,269.44 644.618,270.581 661.384,280.237 662.25,280.708 	"/>
	<polygon fill="#FFA500" points="662.574,337.546 662.574,355.497 662.011,355.894 660.446,356.831 645.273,348.071 
		644.945,347.872 644.634,347.69 639.441,344.698 634.403,341.792 621.558,334.39 631.543,328.637 631.908,328.427 639.449,324.081 
		642.982,326.118 644.961,327.259 657.341,334.39 661.728,336.915 662.419,337.386 	"/>
	<polygon opacity="0.1" fill="#020202" points="662.574,298.909 662.574,312.903 658.432,310.863 645.586,304.55 645.574,299.601 
		645.574,291.395 644.923,291.194 644.451,291.013 642.715,269.44 644.742,270.581 661.574,280.237 661.574,280.388 
		662.445,294.454 	"/>
	<polygon fill="#FFA500" points="662.574,281.56 662.574,330.684 662.654,330.655 657.894,327.702 645.574,320.393 645.574,270.925 
		661.701,280.388 662.632,281.013 662.497,281.051 	"/>
	<polygon opacity="0.1" points="662.574,308.984 662.574,329.602 662.654,329.626 658.292,332.175 657.998,331.985 645.632,324.854 
		644.954,324.459 643.666,323.714 641.662,322.382 645.574,320.307 645.574,319.275 647.808,317.74 	"/>
	<polygon fill="#FFA500" points="662.574,310.015 662.574,330.632 662.654,330.655 658.292,333.205 657.998,333.017 
		645.632,325.885 644.954,325.489 643.666,324.744 640.462,322.896 641.357,322.382 644.96,320.307 647.501,318.771 	"/>
</g>
<g>
	<path fill="#FFFFFF" d="M708.322,151.167v68.459h-14.449l0.246-5.688c-0.984,2.309-2.197,4.04-3.639,5.195
		c-1.441,1.153-3.1,1.731-4.975,1.731c-2.133,0-3.902-0.55-5.309-1.651s-2.443-2.561-3.111-4.385
		c-0.668-1.823-1.084-3.722-1.248-5.701c-0.164-1.978-0.246-5.907-0.246-11.788v-46.173h14.203v46.585
		c0,5.333,0.111,8.495,0.334,9.493c0.223,0.999,0.826,1.496,1.811,1.496c1.055,0,1.682-0.516,1.881-1.548s0.299-4.351,0.299-9.957
		v-46.07H708.322z"/>
	<path fill="#FFFFFF" d="M726.388,136.104v10.885h-14.625v-10.885H726.388z M726.388,151.167v68.459h-14.625v-68.459H726.388z"/>
	<path fill="#FFFFFF" d="M761.225,177.014h-13.395v-7.893c0-2.751-0.152-4.618-0.457-5.598c-0.305-0.98-0.867-1.47-1.688-1.47
		s-1.371,0.431-1.652,1.29c-0.281,0.86-0.422,2.786-0.422,5.778v32.295c0,2.443,0.211,4.275,0.633,5.494
		c0.422,1.221,1.043,1.832,1.863,1.832c0.961,0,1.611-0.636,1.951-1.909c0.34-1.271,0.51-3.68,0.51-7.223v-8.151h12.656
		c-0.023,5.469-0.158,9.57-0.404,12.304s-1.031,5.539-2.355,8.409c-1.324,2.872-3.053,5.039-5.186,6.5
		c-2.133,1.461-4.77,2.192-7.91,2.192c-4.008,0-7.184-1.006-9.527-3.018c-2.344-2.012-4.002-4.831-4.975-8.46
		c-0.973-3.628-1.459-8.777-1.459-15.451v-19.449c0-5.811,0.398-10.196,1.195-13.155c0.797-2.958,2.496-5.598,5.098-7.919
		c2.602-2.321,5.766-3.482,9.492-3.482c3.703,0,6.867,1.153,9.492,3.457c2.625,2.304,4.371,5.21,5.238,8.718
		C760.792,165.613,761.225,170.584,761.225,177.014z"/>
	<path fill="#FFFFFF" d="M794.374,151.167l-5.766,27.265l7.488,41.194h-13.658l-4.43-29.837l-0.018,29.837h-14.203v-83.523h14.203
		l0.018,35.063l4.43-19.999H794.374z"/>
	<path fill="#FFA500" d="M811.174,136.104v83.523h-14.625v-83.523H811.174z"/>
	<path fill="#FFFFFF" d="M829.241,136.104v10.885h-14.625v-10.885H829.241z M829.241,151.167v68.459h-14.625v-68.459H829.241z"/>
	<path fill="#FFFFFF" d="M847.132,151.167l-0.246,6.307c1.031-2.515,2.291-4.401,3.779-5.659c1.488-1.257,3.205-1.886,5.15-1.886
		c2.438,0,4.43,0.844,5.977,2.528c1.547,1.685,2.543,3.811,2.988,6.371c0.445,2.563,0.668,6.836,0.668,12.82v47.978h-14.203v-47.411
		c0-4.712-0.105-7.583-0.316-8.616c-0.211-1.032-0.797-1.547-1.758-1.547c-1.008,0-1.641,0.593-1.898,1.78s-0.387,4.359-0.387,9.518
		v46.276h-14.203v-68.459H847.132z"/>
	<path fill="#FFFFFF" d="M900.847,186.61H882.46v14.806c0,3.095,0.152,5.09,0.457,5.984c0.305,0.896,0.891,1.341,1.758,1.341
		c1.078,0,1.799-0.593,2.162-1.78s0.545-3.482,0.545-6.887v-9.028h13.465v5.056c0,4.23-0.182,7.48-0.545,9.75
		s-1.213,4.695-2.549,7.274c-1.336,2.579-3.029,4.514-5.08,5.804c-2.051,1.29-4.623,1.935-7.717,1.935c-3,0-5.648-0.638-7.945-1.909
		s-4.084-3.018-5.361-5.236s-2.162-4.661-2.654-7.326c-0.492-2.664-0.738-6.543-0.738-11.634v-19.965
		c0-5.984,0.551-10.705,1.652-14.162s2.906-6.104,5.414-7.945c2.508-1.838,5.391-2.76,8.648-2.76c3.984,0,7.271,1.109,9.861,3.327
		c2.59,2.219,4.406,5.159,5.449,8.822c1.043,3.663,1.564,8.814,1.564,15.451V186.61z M886.609,175.466v-5.004
		c0-3.542-0.129-5.83-0.387-6.862c-0.258-1.032-0.785-1.547-1.582-1.547c-0.984,0-1.594,0.438-1.828,1.315s-0.352,3.243-0.352,7.094
		v5.004H886.609z"/>
	<path fill="#FFA500" d="M935.226,177.014h-13.395v-7.893c0-2.751-0.152-4.618-0.457-5.598c-0.305-0.98-0.867-1.47-1.688-1.47
		s-1.371,0.431-1.652,1.29c-0.281,0.86-0.422,2.786-0.422,5.778v32.295c0,2.443,0.211,4.275,0.633,5.494
		c0.422,1.221,1.043,1.832,1.863,1.832c0.961,0,1.611-0.636,1.951-1.909c0.34-1.271,0.51-3.68,0.51-7.223v-8.151h12.656
		c-0.023,5.469-0.158,9.57-0.404,12.304s-1.031,5.539-2.355,8.409c-1.324,2.872-3.053,5.039-5.186,6.5
		c-2.133,1.461-4.77,2.192-7.91,2.192c-4.008,0-7.184-1.006-9.527-3.018c-2.344-2.012-4.002-4.831-4.975-8.46
		c-0.973-3.628-1.459-8.777-1.459-15.451v-19.449c0-5.811,0.398-10.196,1.195-13.155c0.797-2.958,2.496-5.598,5.098-7.919
		c2.602-2.321,5.766-3.482,9.492-3.482c3.703,0,6.867,1.153,9.492,3.457c2.625,2.304,4.371,5.21,5.238,8.718
		C934.792,165.613,935.226,170.584,935.226,177.014z"/>
	<path fill="#FFFFFF" d="M951.992,151.167l-0.563,9.002c2.063-6.447,5.051-9.861,8.965-10.24v24.092
		c-2.602,0-4.512,0.516-5.73,1.547c-1.219,1.032-1.969,2.469-2.25,4.308c-0.281,1.84-0.422,6.08-0.422,12.717v27.033h-14.203
		v-68.459H951.992z"/>
	<path fill="#FFFFFF" d="M994.071,186.61h-18.387v14.806c0,3.095,0.152,5.09,0.457,5.984c0.305,0.896,0.891,1.341,1.758,1.341
		c1.078,0,1.799-0.593,2.162-1.78s0.545-3.482,0.545-6.887v-9.028h13.465v5.056c0,4.23-0.182,7.48-0.545,9.75
		s-1.213,4.695-2.549,7.274c-1.336,2.579-3.029,4.514-5.08,5.804c-2.051,1.29-4.623,1.935-7.717,1.935c-3,0-5.648-0.638-7.945-1.909
		s-4.084-3.018-5.361-5.236s-2.162-4.661-2.654-7.326c-0.492-2.664-0.738-6.543-0.738-11.634v-19.965
		c0-5.984,0.551-10.705,1.652-14.162s2.906-6.104,5.414-7.945c2.508-1.838,5.391-2.76,8.648-2.76c3.984,0,7.271,1.109,9.861,3.327
		c2.59,2.219,4.406,5.159,5.449,8.822c1.043,3.663,1.564,8.814,1.564,15.451V186.61z M979.833,175.466v-5.004
		c0-3.542-0.129-5.83-0.387-6.862c-0.258-1.032-0.785-1.547-1.582-1.547c-0.984,0-1.594,0.438-1.828,1.315s-0.352,3.243-0.352,7.094
		v5.004H979.833z"/>
	<path fill="#FFFFFF" d="M1029.364,136.104v83.523h-14.203v-4.965c-1.359,2.069-2.789,3.62-4.289,4.653s-3.07,1.551-4.711,1.551
		c-2.203,0-4.113-0.851-5.73-2.554s-2.654-3.67-3.111-5.907c-0.457-2.235-0.686-5.881-0.686-10.937V169.43
		c0-5.262,0.229-8.994,0.686-11.195c0.457-2.2,1.506-4.134,3.146-5.804c1.641-1.668,3.598-2.502,5.871-2.502
		c1.758,0,3.369,0.466,4.834,1.396c1.465,0.932,2.795,2.327,3.99,4.189v-19.411H1029.364z M1015.161,168.398
		c0-2.509-0.146-4.196-0.439-5.056c-0.293-0.858-0.873-1.29-1.74-1.29c-0.844,0-1.412,0.387-1.705,1.161s-0.439,2.502-0.439,5.185
		v33.533c0,2.786,0.141,4.618,0.422,5.495s0.82,1.315,1.617,1.315c0.914,0,1.523-0.49,1.828-1.47
		c0.305-0.98,0.457-3.379,0.457-7.197V168.398z"/>
	<path fill="#FFFFFF" d="M1047.43,136.104v10.885h-14.625v-10.885H1047.43z M1047.43,151.167v68.459h-14.625v-68.459H1047.43z"/>
	<path fill="#FFFFFF" d="M1065.848,142.036v10.782h3.832v10.834h-3.832v36.628c0,4.507,0.158,7.017,0.475,7.532
		c0.316,0.516,1.635,0.774,3.955,0.774v11.04h-5.73c-3.234,0-5.543-0.198-6.926-0.593c-1.383-0.394-2.602-1.307-3.656-2.734
		c-1.055-1.426-1.711-3.061-1.969-4.901c-0.258-1.838-0.387-6.165-0.387-12.975v-34.771h-3.059v-10.834h3.059v-10.782H1065.848z"/>
</g>
<rect x="677.574" y="225.181" fill="#FFFFFF" width="394" height="5"/>
<g>
	<polygon fill="#FFA500" points="660.341,209.39 652.433,213.944 647.618,216.717 644.972,218.242 643.471,219.107 642.445,219.698 
		640.146,221.021 637.058,222.801 634.908,224.041 634.537,224.253 622.521,231.329 617.574,228.331 617.574,213.718 
		622.524,210.712 624.691,209.39 634.61,203.637 634.941,203.427 642.464,199.081 645.992,201.119 647.965,202.259 	"/>
	<polygon opacity="0.1" fill="#020202" points="642.445,219.698 640.146,221.021 640.218,221.062 640.229,221.069 637.443,222.673 
		637.058,222.801 624.37,226.995 624.253,226.905 617.046,221.405 613.035,218.345 612.75,218.125 612.226,217.727 609.486,215.635 
		599.042,206.313 603.409,204.492 608.074,202.54 622.26,210.712 624.558,209.39 624.795,209.252 626.296,210.101 626.777,209.816 
		626.798,209.83 629.447,208.394 643.471,219.107 	"/>
	<polygon fill="#FFA500" points="640.229,221.069 637.443,222.673 633.877,224.727 622.336,231.378 622.326,231.37 622.257,231.329 
		617.046,228.331 616.015,227.736 613.611,226.352 597.5,217.071 596.435,216.456 578.972,206.395 578.574,206.165 578.574,185.548 
		592.269,193.438 596.435,195.839 608.074,202.54 622.26,210.712 622.33,210.753 622.339,210.76 640.146,221.021 640.218,221.062 	
		"/>
	<polygon opacity="0.1" fill="#020202" points="596.447,215.438 595.492,214.664 579.828,202.002 580.48,195.39 584.455,170.497 
		587.894,172.957 594.445,177.639 594.996,191.336 595.117,195.325 595.574,195.584 595.574,195.605 598.224,197.101 
		598.193,197.619 	"/>
	<polygon fill="#FFA500" points="596.574,145.718 596.574,216.456 579.042,206.395 578.574,206.165 578.574,156.009 	"/>
	<polygon opacity="0.1" fill="#020202" points="613.583,144.815 612.923,149.497 611.88,157.477 596.574,166.333 596.574,166.892 
		596.484,166.902 596.336,169.912 578.574,177.07 578.574,175.751 578.746,174.964 582.881,156.064 583.019,156.013 596.099,150.72 
		596.435,150.586 597.043,150.342 600.242,149.047 	"/>
	<polygon fill="#FFA500" points="640.041,141.215 636.509,143.249 622.147,151.52 619.54,153.025 611.811,157.477 596.435,166.333 
		578.574,176.623 578.574,156.009 596.435,145.718 604.253,141.215 622.147,130.907 	"/>
	<polygon opacity="0.1" fill="#020202" points="649.981,154.316 645.667,156.25 637.062,160.114 622.147,151.52 619.54,153.025 
		603.773,141.617 604.498,141.356 605.923,140.844 624.128,134.297 624.25,134.386 635.684,142.65 636.509,143.249 639.304,145.269 
			"/>
	<polygon fill="#FFA500" points="665.574,155.869 665.574,173.82 664.839,174.215 663.188,175.153 647.973,166.395 647.623,166.194 
		647.301,166.013 637.064,160.114 622.148,151.52 604.499,141.356 604.253,141.215 622.147,130.907 640.041,141.215 
		645.639,144.441 647.618,145.581 664.384,155.237 665.25,155.708 	"/>
	<polygon fill="#FFA500" points="665.574,212.546 665.574,230.498 665.011,230.893 663.446,231.831 648.273,223.072 
		647.945,222.873 647.634,222.69 642.441,219.698 637.403,216.792 624.558,209.39 634.543,203.637 634.908,203.427 642.449,199.081 
		645.982,201.119 647.961,202.259 660.341,209.39 664.728,211.915 665.419,212.386 	"/>
	<polygon opacity="0.1" fill="#020202" points="665.574,173.91 665.574,187.904 661.432,185.863 648.586,179.55 648.574,174.6 
		648.574,166.395 647.923,166.194 647.451,166.013 645.715,144.441 647.742,145.581 664.574,155.237 664.574,155.388 
		665.445,169.454 	"/>
	<polygon fill="#FFA500" points="665.574,156.56 665.574,205.684 665.654,205.656 660.894,202.702 648.574,195.393 648.574,145.924 
		664.701,155.388 665.632,156.013 665.497,156.051 	"/>
	<polygon opacity="0.1" points="665.574,183.984 665.574,204.602 665.654,204.626 661.292,207.174 660.998,206.985 648.632,199.854 
		647.954,199.459 646.666,198.714 644.662,197.382 648.574,195.307 648.574,194.275 650.808,192.74 	"/>
	<polygon fill="#FFA500" points="665.574,185.015 665.574,205.632 665.654,205.656 661.292,208.205 660.998,208.016 
		648.632,200.885 647.954,200.49 646.666,199.744 643.462,197.896 644.357,197.382 647.96,195.307 650.501,193.771 	"/>
</g>
<polygon fill="#FFA500" points="351.574,152.061 351.574,153.671 324.574,169.111 297.574,153.671 270.574,169.111 270.574,199.671 
	244.284,214.71 243.574,214.301 243.574,152.061 297.574,120.94 "/>
<g>
</g>
<g>
</g>
<g>
</g>
<g>
</g>
<g>
</g>
<g>
</g>
<g>
</g>
<g>
</g>
<g>
</g>
<g>
</g>
<g>
</g>
<g>
</g>
<g>
</g>
<g>
</g>
<g>
</g>
</svg>
